<svg width="154" height="132" viewBox="0 0 154 132" fill="none" xmlns="http://www.w3.org/2000/svg" xmlns:xlink="http://www.w3.org/1999/xlink">
<line x1="36.609" y1="108.87" x2="108.348" y2="108.87" stroke="#1C1F35" stroke-width="2" stroke-miterlimit="3.999327" stroke-linecap="round" stroke-linejoin="round"/>
<path d="M68.071,69.608C66.966,69.608 66.071,70.504 66.071,71.608C66.071,72.713 66.966,73.608 68.071,73.608L68.071,69.608ZM104.307,73.608C105.411,73.608 106.307,72.713 106.307,71.608C106.307,70.504 105.411,69.608 104.307,69.608L104.307,73.608ZM68.071,73.608L104.307,73.608L104.307,69.608L68.071,69.608L68.071,73.608Z" transform="rotate(-62.099 86.189 71.608)" fill="#1C1F35"/>
<path d="M18.9,79.791C17.795,79.791 16.9,80.686 16.9,81.791C16.9,82.895 17.795,83.791 18.9,83.791L18.9,79.791ZM35.913,83.791C37.018,83.791 37.913,82.895 37.913,81.791C37.913,80.686 37.018,79.791 35.913,79.791L35.913,83.791ZM18.9,83.791L35.913,83.791L35.913,79.791L18.9,79.791L18.9,83.791Z" transform="rotate(90 27.407 81.791)" fill="#1C1F35"/>
<path d="M1.508,75.443C0.404,75.443 -0.492,76.338 -0.492,77.443C-0.492,78.548 0.404,79.443 1.508,79.443L1.508,75.443ZM18.522,79.443C19.627,79.443 20.522,78.548 20.522,77.443C20.522,76.338 19.627,75.443 18.522,75.443L18.522,79.443ZM1.508,79.443L18.522,79.443L18.522,75.443L1.508,75.443L1.508,79.443Z" transform="rotate(90 10.015 77.443)" fill="#1C1F35"/>
<path d="M52.452,89.031L53.837,87.589L53.836,87.588L52.452,89.031ZM71.517,91.241L70.494,89.523L70.492,89.524L71.517,91.241ZM147.478,46.009L148.502,47.727C148.998,47.432 149.342,46.936 149.446,46.368C149.55,45.8 149.403,45.215 149.043,44.763L147.478,46.009ZM138.146,34.29L139.711,33.044L139.709,33.041L138.146,34.29ZM117.576,30.538L118.607,32.251L118.609,32.25L117.576,30.538ZM95.299,43.953L94.653,45.846C95.211,46.036 95.825,45.971 96.331,45.666L95.299,43.953ZM65.196,33.673L65.842,31.78C65.367,31.618 64.848,31.64 64.389,31.843L65.196,33.673ZM56.917,37.322L57.721,39.154L57.724,39.152L56.917,37.322ZM55.813,44.159L54.458,45.629L54.458,45.63L55.813,44.159ZM71.216,58.345L72.227,60.071C72.774,59.751 73.137,59.19 73.205,58.559C73.273,57.929 73.038,57.304 72.571,56.874L71.216,58.345ZM57.168,66.569L56.364,68.4C56.951,68.658 57.625,68.619 58.178,68.295L57.168,66.569ZM43.12,60.401L43.924,58.57C43.411,58.345 42.828,58.345 42.316,58.57L43.12,60.401ZM34.691,64.102L33.887,62.271L33.885,62.271L34.691,64.102ZM32.152,72.33L51.067,90.474L53.836,87.588L34.921,69.443L32.152,72.33ZM51.066,90.474C53.9,93.195 57.522,94.912 61.396,95.362L61.857,91.388C58.861,91.041 56.048,89.712 53.837,87.589L51.066,90.474ZM61.396,95.362C65.271,95.811 69.181,94.966 72.543,92.958L70.492,89.524C67.88,91.084 64.852,91.735 61.857,91.388L61.396,95.362ZM72.541,92.96L148.502,47.727L146.455,44.291L70.494,89.523L72.541,92.96ZM149.043,44.763L139.711,33.044L136.582,35.536L145.914,47.255L149.043,44.763ZM139.709,33.041C136.984,29.632 133.152,27.325 128.897,26.549L128.179,30.484C131.47,31.084 134.453,32.872 136.584,35.538L139.709,33.041ZM128.897,26.549C124.642,25.773 120.259,26.582 116.542,28.825L118.609,32.25C121.496,30.508 124.889,29.884 128.179,30.484L128.897,26.549ZM116.544,28.824L94.267,42.24L96.331,45.666L118.607,32.251L116.544,28.824ZM95.945,42.06L65.842,31.78L64.549,35.566L94.653,45.846L95.945,42.06ZM64.389,31.843L56.11,35.492L57.724,39.152L66.002,35.503L64.389,31.843ZM56.113,35.491C55.181,35.9 54.37,36.541 53.751,37.349L56.928,39.78C57.141,39.502 57.415,39.288 57.721,39.154L56.113,35.491ZM53.751,37.349C53.133,38.157 52.726,39.108 52.564,40.112L56.513,40.75C56.57,40.392 56.714,40.059 56.928,39.78L53.751,37.349ZM52.564,40.112C52.402,41.116 52.489,42.147 52.818,43.109L56.603,41.815C56.486,41.474 56.455,41.107 56.513,40.75L52.564,40.112ZM52.818,43.109C53.147,44.072 53.709,44.939 54.458,45.629L57.169,42.688C56.915,42.454 56.719,42.155 56.603,41.815L52.818,43.109ZM54.458,45.63L69.861,59.816L72.571,56.874L57.168,42.687L54.458,45.63ZM70.206,56.619L56.157,64.843L58.178,68.295L72.227,60.071L70.206,56.619ZM57.972,64.738L43.924,58.57L42.316,62.232L56.364,68.4L57.972,64.738ZM42.316,58.57L33.887,62.271L35.495,65.933L43.924,62.232L42.316,58.57ZM33.885,62.271C32.962,62.678 32.158,63.311 31.542,64.109L34.709,66.552C34.921,66.277 35.193,66.066 35.496,65.933L33.885,62.271ZM31.542,64.109C30.926,64.907 30.518,65.845 30.349,66.839L34.292,67.51C34.352,67.156 34.497,66.827 34.709,66.552L31.542,64.109ZM30.349,66.839C30.18,67.832 30.255,68.853 30.569,69.811L34.37,68.566C34.259,68.227 34.232,67.863 34.292,67.51L30.349,66.839ZM30.569,69.811C30.883,70.769 31.426,71.636 32.155,72.333L34.919,69.441C34.671,69.205 34.481,68.905 34.37,68.566L30.569,69.811Z" fill="#1C1F35"/>
<path d="M139.87,36.956C127.81,46.429 115.905,47.619 107.261,36.956L114.053,32.542C122.493,27.056 133.732,28.977 139.87,36.956Z" fill="#FFD550" stroke="#1C1F35" stroke-width="2" stroke-miterlimit="3.999327"/>
</svg>
