<svg width="124" height="124" viewBox="0 0 124 124" fill="none" xmlns="http://www.w3.org/2000/svg" xmlns:xlink="http://www.w3.org/1999/xlink">
<path d="M84.143,57.571L84.143,37.643L95.336,37.643C101.006,37.643 106.115,41.062 108.278,46.302L112.358,56.19C112.63,56.848 112.146,57.571 111.434,57.571L84.143,57.571Z" fill="#FFD550" stroke="#1C1F35" stroke-width="2" stroke-miterlimit="3.999327"/>
<line x1="8.857" y1="68.857" x2="84.143" y2="68.857" stroke="#1C1F35" stroke-width="2" stroke-miterlimit="3.999327" stroke-linecap="round" stroke-linejoin="round"/>
<path d="M102.071,93.001C102.071,99.233 97.019,104.286 90.786,104.286L90.786,108.286C99.228,108.286 106.071,101.443 106.071,93.001L102.071,93.001ZM90.786,104.286C84.553,104.286 79.5,99.233 79.5,93.001L75.5,93.001C75.5,101.443 82.344,108.286 90.786,108.286L90.786,104.286ZM79.5,93.001C79.5,86.768 84.553,81.715 90.786,81.715L90.786,77.715C82.344,77.715 75.5,84.558 75.5,93.001L79.5,93.001ZM90.786,81.715C97.019,81.715 102.071,86.768 102.071,93.001L106.071,93.001C106.071,84.558 99.228,77.715 90.786,77.715L90.786,81.715Z" fill="#1C1F35"/>
<path d="M33.214,106.286C40.552,106.286 46.5,100.338 46.5,93.001C46.5,85.663 40.552,79.715 33.214,79.715C25.877,79.715 19.929,85.663 19.929,93.001C19.929,100.338 25.877,106.286 33.214,106.286Z" fill="#FFD550" stroke="#1C1F35" stroke-width="2" stroke-miterlimit="3.999327" stroke-linecap="round" stroke-linejoin="round"/>
<line x1="46.5" y1="88.785" x2="77.5" y2="88.785" stroke="#1C1F35" stroke-width="2" stroke-miterlimit="3.999327" stroke-linecap="round" stroke-linejoin="round"/>
<path d="M19.818,92.785C20.922,92.785 21.818,91.89 21.818,90.785C21.818,89.681 20.922,88.785 19.818,88.785L19.818,92.785ZM8.857,86.91L6.857,86.91L8.857,86.91ZM12.621,28.785L12.621,30.785L12.621,28.785ZM84.143,28.785L86.143,28.785C86.143,27.681 85.247,26.785 84.143,26.785L84.143,28.785ZM82.143,80.71C82.143,81.815 83.038,82.71 84.143,82.71C85.247,82.71 86.143,81.815 86.143,80.71L82.143,80.71ZM19.818,88.785L12.621,88.785L12.621,92.785L19.818,92.785L19.818,88.785ZM12.621,88.785C12.173,88.785 11.73,88.602 11.394,88.257L8.525,91.044C9.601,92.152 11.074,92.785 12.621,92.785L12.621,88.785ZM11.394,88.257C11.057,87.909 10.857,87.426 10.857,86.91L6.857,86.91C6.857,88.45 7.451,89.938 8.525,91.044L11.394,88.257ZM10.857,86.91L10.857,32.66L6.857,32.66L6.857,86.91L10.857,86.91ZM10.857,32.66C10.857,32.144 11.057,31.661 11.394,31.314L8.525,28.527C7.451,29.632 6.857,31.12 6.857,32.66L10.857,32.66ZM11.394,31.314C11.73,30.968 12.173,30.785 12.621,30.785L12.621,26.785C11.074,26.785 9.601,27.419 8.525,28.527L11.394,31.314ZM12.621,30.785L84.143,30.785L84.143,26.785L12.621,26.785L12.621,30.785ZM82.143,28.785L82.143,80.71L86.143,80.71L86.143,28.785L82.143,28.785Z" fill="#1C1F35"/>
<path d="M84.143,55.572C83.038,55.572 82.143,56.468 82.143,57.572C82.143,58.677 83.038,59.572 84.143,59.572L84.143,55.572ZM115.143,57.572L117.143,57.572C117.143,56.468 116.247,55.572 115.143,55.572L115.143,57.572ZM103.795,88.786C102.69,88.786 101.795,89.682 101.795,90.786C101.795,91.891 102.69,92.786 103.795,92.786L103.795,88.786ZM84.143,59.572L115.143,59.572L115.143,55.572L84.143,55.572L84.143,59.572ZM113.143,57.572L113.143,87.096L117.143,87.096L117.143,57.572L113.143,57.572ZM113.143,87.096C113.143,87.512 112.97,87.932 112.629,88.257L115.387,91.154C116.499,90.095 117.143,88.638 117.143,87.096L113.143,87.096ZM112.629,88.257C112.284,88.586 111.796,88.786 111.268,88.786L111.268,92.786C112.795,92.786 114.279,92.209 115.387,91.154L112.629,88.257ZM111.268,88.786L103.795,88.786L103.795,92.786L111.268,92.786L111.268,88.786Z" fill="#1C1F35"/>
<line x1="15.714" y1="37.643" x2="15.714" y2="56.189" stroke="#1C1F35" stroke-width="2" stroke-miterlimit="3.999327" stroke-linecap="round" stroke-linejoin="round"/>
<line x1="76.118" y1="60" x2="57.571" y2="60" stroke="#1C1F35" stroke-width="2" stroke-miterlimit="3.999327" stroke-linecap="round" stroke-linejoin="round"/>
<line x1="64.214" y1="97.43" x2="57.571" y2="97.43" stroke="#1C1F35" stroke-width="2" stroke-miterlimit="3.999327" stroke-linecap="round" stroke-linejoin="round"/>
</svg>
