<svg width="128" height="126" viewBox="0 0 128 126" fill="none" xmlns="http://www.w3.org/2000/svg" xmlns:xlink="http://www.w3.org/1999/xlink">
<circle cx="64" cy="63" r="63" fill="#111C55" stroke="#273270" stroke-width="1" stroke-miterlimit="3.999327"/>
<path d="M86,62C86,73.598 76.598,83 65,83L65,85C77.703,85 88,74.703 88,62L86,62ZM65,83C53.402,83 44,73.598 44,62L42,62C42,74.703 52.297,85 65,85L65,83ZM44,62C44,50.402 53.402,41 65,41L65,39C52.297,39 42,49.297 42,62L44,62ZM65,41C76.598,41 86,50.402 86,62L88,62C88,49.297 77.703,39 65,39L65,41Z" fill="#F6B426"/>
<path d="M65,62.412L64,62.412L64,62.908L64.395,63.208L65,62.412ZM64,44L64,62.412L66,62.412L66,44L64,44ZM64.395,63.208L74.396,70.797L75.604,69.203L65.605,61.615L64.395,63.208Z" fill="#F6B426"/>
</svg>
