<svg width="128" height="126" viewBox="0 0 128 126" fill="none" xmlns="http://www.w3.org/2000/svg" xmlns:xlink="http://www.w3.org/1999/xlink">
<circle cx="64" cy="63" r="63" fill="#111C55" stroke="#273270" stroke-width="1" stroke-miterlimit="3.999327"/>
<path d="M47.008,47L82.992,47L82.992,45L47.008,45L47.008,47ZM82.992,47C83.725,47 84,47.464 84,47.677L86,47.677C86,46.038 84.477,45 82.992,45L82.992,47ZM84,47.677L84,74.323L86,74.323L86,47.677L84,47.677ZM84,74.323C84,74.536 83.725,75 82.992,75L82.992,77C84.477,77 86,75.962 86,74.323L84,74.323ZM82.992,75L47.008,75L47.008,77L82.992,77L82.992,75ZM47.008,75C46.275,75 46,74.536 46,74.323L44,74.323C44,75.962 45.523,77 47.008,77L47.008,75ZM46,74.323L46,47.677L44,47.677L44,74.323L46,74.323ZM46,47.677C46,47.464 46.275,47 47.008,47L47.008,45C45.523,45 44,46.038 44,47.677L46,47.677Z" fill="#F6B426"/>
<path d="M65.849,60L65.292,60.83L65.864,61.214L66.427,60.816L65.849,60ZM44.443,46.83L65.292,60.83L66.407,59.17L45.557,45.17L44.443,46.83ZM66.427,60.816L85.577,47.275L84.423,45.642L65.272,59.184L66.427,60.816Z" fill="#F6B426"/>
</svg>
