<svg width="116" height="116" viewBox="0 0 116 116" fill="none" xmlns="http://www.w3.org/2000/svg" xmlns:xlink="http://www.w3.org/1999/xlink">
<circle cx="58" cy="58" r="58" fill="url(#pf_0_116_526)"/>
<path d="M82,49.08L83.5,49.08L83.5,49.073L82,49.08ZM80.975,47.246L81.742,45.957L81.737,45.954L80.975,47.246ZM58.975,34.274L58.198,35.557L58.213,35.566L58.975,34.274ZM58,34L58,32.5L58,34ZM57.025,34.274L57.787,35.566L57.802,35.557L57.025,34.274ZM35.025,47.246L34.263,45.954L34.258,45.957L35.025,47.246ZM34,49.08L32.5,49.073L32.5,49.08L34,49.08ZM34,74.92L32.5,74.92L32.5,74.927L34,74.92ZM35.025,76.754L34.258,78.043L34.263,78.046L35.025,76.754ZM57.025,89.726L57.802,88.443L57.787,88.434L57.025,89.726ZM58,90L58,88.5L58,90ZM58.975,89.726L58.213,88.434L58.198,88.443L58.975,89.726ZM80.975,76.754L81.737,78.046L81.742,78.043L80.975,76.754ZM83.5,74.92L83.5,49.08L80.5,49.08L80.5,74.92L83.5,74.92ZM83.5,49.073C83.497,48.449 83.337,47.833 83.032,47.287L80.413,48.751C80.468,48.849 80.499,48.965 80.5,49.088L83.5,49.073ZM83.032,47.287C82.726,46.741 82.284,46.28 81.742,45.957L80.208,48.535C80.285,48.581 80.358,48.653 80.413,48.751L83.032,47.287ZM81.737,45.954L59.737,32.982L58.213,35.566L80.213,48.538L81.737,45.954ZM59.752,32.991C59.224,32.671 58.62,32.5 58,32.5L58,35.5C58.065,35.5 58.133,35.518 58.198,35.557L59.752,32.991ZM58,32.5C57.38,32.5 56.776,32.671 56.248,32.991L57.802,35.557C57.867,35.518 57.935,35.5 58,35.5L58,32.5ZM56.263,32.982L34.263,45.954L35.787,48.538L57.787,35.566L56.263,32.982ZM34.258,45.957C33.716,46.28 33.274,46.741 32.968,47.287L35.587,48.751C35.642,48.653 35.715,48.581 35.792,48.535L34.258,45.957ZM32.968,47.287C32.663,47.833 32.503,48.449 32.5,49.073L35.5,49.088C35.501,48.965 35.532,48.849 35.587,48.751L32.968,47.287ZM32.5,49.08L32.5,74.92L35.5,74.92L35.5,49.08L32.5,49.08ZM32.5,74.927C32.503,75.551 32.663,76.167 32.968,76.713L35.587,75.249C35.532,75.151 35.501,75.035 35.5,74.912L32.5,74.927ZM32.968,76.713C33.274,77.259 33.716,77.72 34.258,78.043L35.792,75.465C35.715,75.419 35.642,75.347 35.587,75.249L32.968,76.713ZM34.263,78.046L56.263,91.018L57.787,88.434L35.787,75.462L34.263,78.046ZM56.248,91.009C56.776,91.329 57.38,91.5 58,91.5L58,88.5C57.935,88.5 57.867,88.482 57.802,88.443L56.248,91.009ZM58,91.5C58.62,91.5 59.224,91.329 59.752,91.009L58.198,88.443C58.133,88.482 58.065,88.5 58,88.5L58,91.5ZM59.737,91.018L81.737,78.046L80.213,75.462L58.213,88.434L59.737,91.018ZM81.742,78.043C82.284,77.72 82.726,77.259 83.032,76.713L80.413,75.249C80.358,75.347 80.285,75.419 80.208,75.465L81.742,78.043ZM83.032,76.713C83.337,76.167 83.497,75.551 83.5,74.927L80.5,74.912C80.499,75.035 80.468,75.151 80.413,75.249L83.032,76.713Z" fill="#141414"/>
<path d="M68.5,68C68.5,68.828 69.172,69.5 70,69.5C70.828,69.5 71.5,68.828 71.5,68L68.5,68ZM70,54.199L71.5,54.199C71.5,53.669 71.22,53.178 70.764,52.908L70,54.199ZM46.764,38.709C46.051,38.287 45.131,38.523 44.709,39.236C44.287,39.949 44.523,40.869 45.236,41.291L46.764,38.709ZM71.5,68L71.5,54.199L68.5,54.199L68.5,68L71.5,68ZM70.764,52.908L46.764,38.709L45.236,41.291L69.236,55.49L70.764,52.908Z" fill="#141414"/>
<path d="M82.761,49.293C83.475,48.872 83.713,47.953 83.293,47.239C82.872,46.525 81.953,46.287 81.239,46.707L82.761,49.293ZM58.228,62L57.477,63.299C57.945,63.569 58.523,63.567 58.989,63.293L58.228,62ZM34.75,46.701C34.033,46.287 33.116,46.532 32.701,47.25C32.287,47.967 32.532,48.884 33.25,49.299L34.75,46.701ZM81.239,46.707L57.466,60.707L58.989,63.293L82.761,49.293L81.239,46.707ZM58.978,60.701L34.75,46.701L33.25,49.299L57.477,63.299L58.978,60.701Z" fill="#141414"/>
<line x1="56.5" y1="62" x2="56.5" y2="90" stroke="#141414" stroke-width="1.5" stroke-miterlimit="3.999327" stroke-linecap="round" stroke-linejoin="round"/>
<defs>
<linearGradient id="pf_0_116_526" x1="-3.289" y1="25.133" x2="136.031" y2="128.567" gradientUnits="userSpaceOnUse">
<stop stop-color="#FFB629"/>
<stop offset="0.507" stop-color="#FFDA56"/>
<stop offset="1" stop-color="#FFD7A6"/>
</linearGradient>
</defs>
</svg>
