<svg width="116" height="116" viewBox="0 0 116 116" fill="none" xmlns="http://www.w3.org/2000/svg" xmlns:xlink="http://www.w3.org/1999/xlink">
<circle cx="58" cy="58" r="58" fill="url(#pf_0_116_534)"/>
<path d="M32.071,43.5L85.929,43.5L85.929,40.5L32.071,40.5L32.071,43.5ZM85.929,43.5C86.294,43.5 86.5,43.773 86.5,44L89.5,44C89.5,42.018 87.851,40.5 85.929,40.5L85.929,43.5ZM86.5,44L86.5,72L89.5,72L89.5,44L86.5,44ZM86.5,72C86.5,72.227 86.294,72.5 85.929,72.5L85.929,75.5C87.851,75.5 89.5,73.982 89.5,72L86.5,72ZM85.929,72.5L32.071,72.5L32.071,75.5L85.929,75.5L85.929,72.5ZM32.071,72.5C31.706,72.5 31.5,72.227 31.5,72L28.5,72C28.5,73.982 30.149,75.5 32.071,75.5L32.071,72.5ZM31.5,72L31.5,44L28.5,44L28.5,72L31.5,72ZM31.5,44C31.5,43.773 31.706,43.5 32.071,43.5L32.071,40.5C30.149,40.5 28.5,42.018 28.5,44L31.5,44Z" fill="#1C1F35"/>
<path d="M64.5,59C64.5,62.038 62.038,64.5 59,64.5L59,67.5C63.694,67.5 67.5,63.694 67.5,59L64.5,59ZM59,64.5C55.962,64.5 53.5,62.038 53.5,59L50.5,59C50.5,63.694 54.306,67.5 59,67.5L59,64.5ZM53.5,59C53.5,55.962 55.962,53.5 59,53.5L59,50.5C54.306,50.5 50.5,54.306 50.5,59L53.5,59ZM59,53.5C62.038,53.5 64.5,55.962 64.5,59L67.5,59C67.5,54.306 63.694,50.5 59,50.5L59,53.5Z" fill="#1C1F35"/>
<path d="M72.988,40.871C72.364,40.326 71.417,40.389 70.871,41.012C70.326,41.636 70.389,42.583 71.012,43.129L72.988,40.871ZM87.012,57.129C87.636,57.674 88.583,57.611 89.129,56.988C89.674,56.364 89.611,55.417 88.988,54.871L87.012,57.129ZM71.012,43.129L87.012,57.129L88.988,54.871L72.988,40.871L71.012,43.129Z" fill="#1C1F35"/>
<path d="M71.012,72.871C70.389,73.417 70.326,74.364 70.871,74.988C71.417,75.611 72.364,75.674 72.988,75.129L71.012,72.871ZM88.988,61.129C89.611,60.583 89.674,59.636 89.129,59.012C88.583,58.389 87.636,58.326 87.012,58.871L88.988,61.129ZM72.988,75.129L88.988,61.129L87.012,58.871L71.012,72.871L72.988,75.129Z" fill="#1C1F35"/>
<path d="M46.988,43.129C47.611,42.583 47.674,41.636 47.129,41.012C46.583,40.389 45.636,40.326 45.012,40.871L46.988,43.129ZM29.012,54.871C28.389,55.417 28.326,56.364 28.871,56.988C29.417,57.611 30.364,57.674 30.988,57.129L29.012,54.871ZM45.012,40.871L29.012,54.871L30.988,57.129L46.988,43.129L45.012,40.871Z" fill="#1C1F35"/>
<path d="M45.012,75.129C45.636,75.674 46.583,75.611 47.129,74.988C47.674,74.364 47.611,73.417 46.988,72.871L45.012,75.129ZM30.988,58.871C30.364,58.326 29.417,58.389 28.871,59.012C28.326,59.636 28.389,60.583 29.012,61.129L30.988,58.871ZM46.988,72.871L30.988,58.871L29.012,61.129L45.012,75.129L46.988,72.871Z" fill="#1C1F35"/>
<defs>
<linearGradient id="pf_0_116_534" x1="-3.289" y1="25.133" x2="136.031" y2="128.567" gradientUnits="userSpaceOnUse">
<stop stop-color="#FFB629"/>
<stop offset="0.507" stop-color="#FFDA56"/>
<stop offset="1" stop-color="#FFD7A6"/>
</linearGradient>
</defs>
</svg>
