<svg width="110" height="92" viewBox="0 0 110 92" fill="none" xmlns="http://www.w3.org/2000/svg" xmlns:xlink="http://www.w3.org/1999/xlink">
<line x1="2.667" y1="88" x2="107.429" y2="88" stroke="#141414" stroke-width="2" stroke-miterlimit="3.999327" stroke-linecap="round" stroke-linejoin="round"/>
<path d="M61.429,90C61.429,91.105 62.324,92 63.429,92C64.533,92 65.429,91.105 65.429,90L61.429,90ZM59.537,2L59.537,0L59.537,2ZM8.952,5.826L6.952,5.826L8.952,5.826ZM6.952,90C6.952,91.105 7.848,92 8.952,92C10.057,92 10.952,91.105 10.952,90L6.952,90ZM65.429,90L65.429,5.826L61.429,5.826L61.429,90L65.429,90ZM65.429,5.826C65.429,4.27 64.8,2.784 63.691,1.695L60.887,4.547C61.238,4.892 61.429,5.353 61.429,5.826L65.429,5.826ZM63.691,1.695C62.584,0.606 61.089,0 59.537,0L59.537,4C60.05,4 60.534,4.2 60.887,4.547L63.691,1.695ZM59.537,0L12.844,0L12.844,4L59.537,4L59.537,0ZM12.844,0C11.292,0 9.797,0.606 8.69,1.695L11.494,4.547C11.846,4.2 12.331,4 12.844,4L12.844,0ZM8.69,1.695C7.581,2.784 6.952,4.27 6.952,5.826L10.952,5.826C10.952,5.353 11.143,4.892 11.494,4.547L8.69,1.695ZM6.952,5.826L6.952,90L10.952,90L10.952,5.826L6.952,5.826Z" fill="#141414"/>
<path d="M63.429,27.143L95.143,27.143C98.457,27.143 101.143,29.829 101.143,33.143L101.143,87.905L63.429,87.905Z" fill="#FFD550" stroke="#141414" stroke-width="2" stroke-miterlimit="3.999327" stroke-linecap="round" stroke-linejoin="round"/>
<line x1="25.714" y1="18.857" x2="40.381" y2="18.857" stroke="#141414" stroke-width="2" stroke-miterlimit="3.999327" stroke-linecap="round" stroke-linejoin="round"/>
<line x1="-1.429" y1="81.619" x2="-1.429" y2="52.286" stroke="#141414" stroke-width="2" stroke-miterlimit="3.999327" stroke-linecap="round" stroke-linejoin="round"/>
<line x1="107.524" y1="60.667" x2="107.524" y2="31.333" stroke="#141414" stroke-width="2" stroke-miterlimit="3.999327" stroke-linecap="round" stroke-linejoin="round"/>
<line x1="69.714" y1="16.762" x2="84.381" y2="16.762" stroke="#141414" stroke-width="2" stroke-miterlimit="3.999327" stroke-linecap="round" stroke-linejoin="round"/>
<line x1="32" y1="50.286" x2="46.667" y2="50.286" stroke="#141414" stroke-width="2" stroke-miterlimit="3.999327" stroke-linecap="round" stroke-linejoin="round"/>
<line x1="25.714" y1="69.143" x2="40.381" y2="69.143" stroke="#141414" stroke-width="2" stroke-miterlimit="3.999327" stroke-linecap="round" stroke-linejoin="round"/>
<line x1="78.095" y1="69.143" x2="86.476" y2="69.143" stroke="#141414" stroke-width="2" stroke-miterlimit="3.999327" stroke-linecap="round" stroke-linejoin="round"/>
<line x1="78.095" y1="50.286" x2="86.476" y2="50.286" stroke="#141414" stroke-width="2" stroke-miterlimit="3.999327" stroke-linecap="round" stroke-linejoin="round"/>
</svg>
