<svg width="104" height="110" viewBox="0 0 104 110" fill="none" xmlns="http://www.w3.org/2000/svg" xmlns:xlink="http://www.w3.org/1999/xlink">
<line x1="49.319" y1="0" x2="49.319" y2="12.33" stroke="#1C1F35" stroke-width="2" stroke-miterlimit="3.999327" stroke-linecap="round" stroke-linejoin="round"/>
<path d="M100.639,69.869L102.562,70.419C102.613,70.24 102.639,70.055 102.639,69.869L100.639,69.869ZM52.244,106.653L51.79,104.705C51.777,104.708 51.764,104.712 51.751,104.715L52.244,106.653ZM50.395,106.653L50.888,104.715C50.875,104.712 50.862,104.708 50.849,104.705L50.395,106.653ZM2,69.869L0,69.869C0,70.055 0.026,70.24 0.077,70.419L2,69.869ZM2,52.299L4,52.299L4,52.299L2,52.299ZM4.826,48.394L5.451,50.294L5.459,50.291L4.826,48.394ZM50.035,33.29L49.447,31.379C49.432,31.383 49.417,31.388 49.401,31.393L50.035,33.29ZM52.604,33.29L53.238,31.393C53.223,31.388 53.207,31.383 53.192,31.379L52.604,33.29ZM97.813,48.394L97.18,50.291L97.188,50.294L97.813,48.394ZM100.639,52.299L98.639,52.299L98.639,52.299L100.639,52.299ZM98.716,69.319C95.179,81.674 85.167,90.164 74.973,95.796C64.813,101.41 54.791,104.005 51.79,104.705L52.699,108.601C55.862,107.863 66.287,105.166 76.908,99.298C87.495,93.448 98.598,84.265 102.562,70.419L98.716,69.319ZM51.751,104.715C51.468,104.787 51.171,104.787 50.888,104.715L49.902,108.591C50.832,108.828 51.807,108.828 52.737,108.591L51.751,104.715ZM50.849,104.705C47.848,104.005 37.826,101.41 27.666,95.796C17.472,90.164 7.46,81.674 3.923,69.319L0.077,70.419C4.041,84.265 15.144,93.448 25.731,99.298C36.352,105.166 46.777,107.863 49.94,108.601L50.849,104.705ZM4,69.869L4,52.299L0,52.299L0,69.869L4,69.869ZM4,52.299C4,51.854 4.14,51.421 4.401,51.062L1.16,48.716C0.406,49.759 0,51.012 0,52.299L4,52.299ZM4.401,51.062C4.661,50.702 5.029,50.433 5.451,50.294L4.201,46.495C2.978,46.897 1.914,47.674 1.16,48.716L4.401,51.062ZM5.459,50.291L50.669,35.187L49.401,31.393L4.192,46.497L5.459,50.291ZM50.623,35.202C51.077,35.062 51.562,35.062 52.016,35.202L53.192,31.379C51.972,31.003 50.667,31.003 49.447,31.379L50.623,35.202ZM51.97,35.187L97.18,50.291L98.447,46.497L53.238,31.393L51.97,35.187ZM97.188,50.294C97.61,50.433 97.978,50.702 98.238,51.062L101.479,48.716C100.725,47.674 99.661,46.897 98.438,46.495L97.188,50.294ZM98.238,51.062C98.499,51.421 98.639,51.854 98.639,52.299L102.639,52.299C102.639,51.012 102.233,49.759 101.479,48.716L98.238,51.062ZM98.639,52.299L98.639,69.869L102.639,69.869L102.639,52.299L98.639,52.299Z" fill="#1C1F35"/>
<path d="M51.806,95.279C52.883,95.527 53.956,94.855 54.204,93.779C54.452,92.703 53.78,91.629 52.704,91.381L51.806,95.279ZM15.886,64.056C15.579,62.995 14.469,62.385 13.408,62.692C12.348,63 11.737,64.11 12.045,65.171L15.886,64.056ZM52.704,91.381C50.344,90.838 42.456,88.822 34.464,84.465C26.435,80.088 18.636,73.533 15.886,64.056L12.045,65.171C15.23,76.148 24.136,83.39 32.549,87.977C40.999,92.584 49.288,94.699 51.806,95.279L52.704,91.381Z" fill="#1C1F35"/>
<path d="M13.966,17.965L13.966,44.272L51.058,31.11L88.151,44.272L88.151,17.965C88.151,14.652 85.465,11.965 82.151,11.965L19.966,11.965C16.652,11.965 13.966,14.652 13.966,17.965Z" fill="#FFD550" stroke="#1C1F35" stroke-width="2" stroke-miterlimit="3.999327"/>
<line x1="49.32" y1="33.085" x2="49.32" y2="73.98" stroke="#1C1F35" stroke-width="2" stroke-miterlimit="3.999327" stroke-linecap="round" stroke-linejoin="round"/>
<line x1="59.827" y1="55.041" x2="59.827" y2="71.793" stroke="#1C1F35" stroke-width="2" stroke-miterlimit="3.999327" stroke-linecap="round" stroke-linejoin="round"/>
<line x1="21.538" y1="21.538" x2="21.538" y2="33.503" stroke="#1C1F35" stroke-width="2" stroke-miterlimit="3.999327" stroke-linecap="round" stroke-linejoin="round"/>
<line x1="95.723" y1="16.752" x2="95.723" y2="38.289" stroke="#1C1F35" stroke-width="2" stroke-miterlimit="3.999327" stroke-linecap="round" stroke-linejoin="round"/>
</svg>
