<svg width="370" height="96" viewBox="0 0 370 96" fill="none" xmlns="http://www.w3.org/2000/svg" xmlns:xlink="http://www.w3.org/1999/xlink">
<path d="M47.369,0L84.289,26.053L88.391,71.053L47.369,90L6.346,71.053L10.448,26.053L47.369,0Z" stroke="#FFFFFF" stroke-width="1" stroke-miterlimit="3.999327"/>
<path d="M47.369,8.631L77.562,29.937L80.917,66.737L47.369,82.233L13.821,66.737L17.176,29.937L47.369,8.631Z" stroke="#FFFFFF" stroke-width="1" stroke-miterlimit="3.999327"/>
<path d="M47.369,17.134L70.934,33.763L73.552,62.486L47.369,74.579L21.185,62.486L23.803,33.763L47.369,17.134Z" stroke="#FFFFFF" stroke-width="1" stroke-miterlimit="3.999327"/>
<path d="M47.369,26.565L63.583,38.007L65.385,57.77L47.369,66.091L29.353,57.77L31.154,38.007L47.369,26.565Z" stroke="#FFFFFF" stroke-width="1" stroke-miterlimit="3.999327"/>
<rect  x="253.73" y="56.865" width="115.068" height="4.342" fill="#FFFFFF"/>
<rect  x="253.73" y="66.997" width="115.068" height="4.342" fill="#FFFFFF"/>
<rect  x="253.73" y="77.37" width="115.068" height="4.342" fill="#FFFFFF"/>
</svg>
