<svg width="1000" height="1502" viewBox="0 0 1000 1502" fill="none" xmlns="http://www.w3.org/2000/svg" xmlns:xlink="http://www.w3.org/1999/xlink">
<mask id="mask_0_120_1328" style="mask-type:alpha" maskUnits="userSpaceOnUse" x="21.999973" y="218.019492" width="453.000013" height="308.00005">
<path d="M167,73.02L783,73.02L783,979.02L167,979.02L167,73.02Z" transform="rotate(180 475 526.02)" fill="#1C1F35"/>
</mask>
<path d="M167,73.02L783,73.02L783,979.02L167,979.02L167,73.02Z" transform="rotate(180 475 526.02)" fill="#1C1F35"/>
<rect  x="0" y="0.02" width="1000" height="1500" fill="url(#pattern_0_120_1329)"/>
<path d="M252,154.02L698,154.02L698,900.02L252,900.02L252,154.02Z" transform="rotate(180 475 527.02)" fill="#1C1F35" fill-opacity="0.91"/>
<path d="M422.32,541.328Q419.664,538.336 419.664,532.832Q419.664,527.36 422.352,524.32Q425.04,521.28 429.904,521.28Q431.856,521.28 433.632,521.952Q435.408,522.624 436.528,523.776Q436.368,524.672 435.824,525.376Q435.28,526.08 434.768,526.08Q434.32,526.08 433.936,525.792Q432.912,525.024 431.952,524.672Q430.992,524.32 429.84,524.32Q426.864,524.32 425.344,526.464Q423.824,528.608 423.824,532.832Q423.824,537.024 425.344,539.152Q426.864,541.28 429.84,541.28Q432.816,541.28 434.928,539.168Q435.568,539.424 435.952,539.936Q436.336,540.448 436.336,541.056Q436.336,541.92 435.44,542.672Q434.544,543.424 433.072,543.872Q431.6,544.32 429.904,544.32Q424.976,544.32 422.32,541.328ZM453.968,527.552Q455.408,529.024 455.408,531.552L455.408,544L451.504,544L451.504,531.968Q451.504,530.432 450.848,529.68Q450.192,528.928 448.816,528.928Q447.632,528.928 446.368,529.44Q445.104,529.952 443.888,530.944L443.888,544L439.984,544L439.984,518.688L443.888,518.688L443.888,528.448Q445.136,527.328 446.784,526.704Q448.432,526.08 450.096,526.08Q452.528,526.08 453.968,527.552ZM460.752,526.4L464.656,526.4L464.656,544L460.752,544L460.752,526.4M460.368,521.024L460.368,520.608Q460.368,518.464 462.512,518.464L462.896,518.464Q465.04,518.464 465.04,520.608L465.04,521.024Q465.04,523.168 462.896,523.168L462.512,523.168Q460.368,523.168 460.368,521.024ZM487.632,541.648Q487.824,541.952 487.824,542.368Q487.824,543.008 487.376,543.392Q486.864,543.808 485.856,544.064Q484.848,544.32 483.632,544.32Q481.456,544.32 480.16,543.12Q478.864,541.92 478.864,539.904L478.864,528.992L475.952,528.992L475.952,526.4L478.864,526.4L478.864,521.6L482.736,521.6L482.736,526.4L486.48,526.4L486.48,528.992L482.736,528.992L482.736,539.488Q482.736,540.704 483.184,541.232Q483.632,541.76 484.624,541.76Q485.84,541.76 487.152,541.216Q487.44,541.344 487.632,541.648ZM490.864,526.4L494.768,526.4L494.768,544L490.864,544L490.864,526.4M490.48,521.024L490.48,520.608Q490.48,518.464 492.624,518.464L493.008,518.464Q495.152,518.464 495.152,520.608L495.152,521.024Q495.152,523.168 493.008,523.168L492.624,523.168Q490.48,523.168 490.48,521.024ZM514.576,535.84L502.8,535.84Q502.96,538.592 504.08,540.096Q505.2,541.6 507.12,541.6Q508.432,541.6 509.28,541.072Q510.128,540.544 511.216,539.008Q511.408,538.72 511.888,538.72Q512.784,538.72 514.352,539.84Q513.456,542.016 511.584,543.168Q509.712,544.32 507.12,544.32Q503.248,544.32 501.024,541.872Q498.8,539.424 498.8,535.168Q498.8,530.944 501.04,528.512Q503.28,526.08 507.184,526.08Q510.768,526.08 512.736,528.16Q514.704,530.24 514.704,534.016Q514.704,534.56 514.576,535.84M510.768,533.472Q510.768,528.704 507.088,528.704Q505.264,528.704 504.192,529.904Q503.12,531.104 502.864,533.472L510.768,533.472M504.752,519.296L508.816,519.296L511.92,524L509.04,524L506.8,521.344L504.496,524L501.616,524L504.752,519.296M513.712,515.776L518.16,515.776L514.384,520.608L510.992,520.608L513.712,515.776ZM527.824,541.648Q528.016,541.952 528.016,542.368Q528.016,543.008 527.568,543.392Q527.056,543.808 526.048,544.064Q525.04,544.32 523.824,544.32Q521.648,544.32 520.352,543.12Q519.056,541.92 519.056,539.904L519.056,528.992L516.144,528.992L516.144,526.4L519.056,526.4L519.056,521.6L522.928,521.6L522.928,526.4L526.672,526.4L526.672,528.992L522.928,528.992L522.928,539.488Q522.928,540.704 523.376,541.232Q523.824,541.76 524.816,541.76Q526.032,541.76 527.344,541.216Q527.632,541.344 527.824,541.648Z" fill="#FFFFFF"/>
</svg>
