<svg width="40" height="40" viewBox="0 0 40 40" fill="none" xmlns="http://www.w3.org/2000/svg" xmlns:xlink="http://www.w3.org/1999/xlink">
<path d="M28.152,3.483C30.346,3.489 32.448,4.331 34,5.823C35.551,7.316 36.426,9.34 36.432,11.451L36.432,27.386C36.426,29.497 35.551,31.52 34,33.013C32.448,34.506 30.346,35.348 28.152,35.354L11.592,35.354C9.398,35.348 7.296,34.506 5.744,33.013C4.193,31.52 3.318,29.497 3.312,27.386L3.312,11.451C3.318,9.34 4.193,7.316 5.744,5.823C7.296,4.331 9.398,3.489 11.592,3.483L28.152,3.483L28.152,3.483ZM28.152,0.296L11.592,0.296C5.216,0.296 0,5.316 0,11.451L0,27.386C0,33.521 5.216,38.541 11.592,38.541L28.152,38.541C34.528,38.541 39.744,33.521 39.744,27.386L39.744,11.451C39.744,5.316 34.528,0.296 28.152,0.296L28.152,0.296Z" fill="#FFFFFF"/>
<path d="M30.636,11.452C30.145,11.452 29.664,11.311 29.256,11.049C28.847,10.786 28.529,10.413 28.341,9.976C28.153,9.539 28.104,9.059 28.2,8.595C28.295,8.131 28.532,7.705 28.879,7.371C29.227,7.037 29.669,6.809 30.151,6.717C30.633,6.625 31.133,6.672 31.586,6.853C32.04,7.034 32.428,7.34 32.701,7.733C32.974,8.126 33.12,8.588 33.12,9.061C33.121,9.375 33.057,9.686 32.932,9.977C32.808,10.267 32.625,10.531 32.394,10.753C32.163,10.975 31.889,11.151 31.587,11.271C31.286,11.391 30.962,11.452 30.636,11.452L30.636,11.452ZM19.872,13.044C21.182,13.044 22.463,13.418 23.552,14.119C24.642,14.819 25.491,15.815 25.992,16.98C26.494,18.144 26.625,19.426 26.369,20.662C26.114,21.899 25.483,23.035 24.556,23.926C23.63,24.818 22.449,25.425 21.164,25.671C19.879,25.917 18.548,25.791 17.337,25.308C16.127,24.826 15.092,24.009 14.364,22.96C13.636,21.912 13.248,20.68 13.248,19.419C13.25,17.729 13.948,16.109 15.19,14.913C16.432,13.718 18.116,13.046 19.872,13.044L19.872,13.044ZM19.872,9.858C17.907,9.858 15.986,10.418 14.352,11.469C12.718,12.52 11.444,14.013 10.692,15.76C9.94,17.507 9.744,19.43 10.127,21.284C10.51,23.139 11.457,24.843 12.846,26.18C14.236,27.517 16.006,28.427 17.934,28.796C19.861,29.165 21.859,28.976 23.675,28.252C25.49,27.529 27.042,26.303 28.134,24.731C29.225,23.158 29.808,21.31 29.808,19.419C29.808,16.883 28.761,14.451 26.898,12.658C25.035,10.865 22.507,9.858 19.872,9.858L19.872,9.858Z" fill="#FFFFFF"/>
</svg>
