<svg width="40" height="40" viewBox="0 0 40 40" fill="none" xmlns="http://www.w3.org/2000/svg" xmlns:xlink="http://www.w3.org/1999/xlink">
<path d="M24,17.183C24,19.392 22.209,21.183 20,21.183L20,23.583C23.535,23.583 26.4,20.718 26.4,17.183L24,17.183ZM20,21.183C17.791,21.183 16,19.392 16,17.183L13.6,17.183C13.6,20.718 16.465,23.583 20,23.583L20,21.183ZM16,17.183C16,14.974 17.791,13.183 20,13.183L20,10.783C16.465,10.783 13.6,13.649 13.6,17.183L16,17.183ZM20,13.183C22.209,13.183 24,14.974 24,17.183L26.4,17.183C26.4,13.649 23.535,10.783 20,10.783L20,13.183Z" fill="#4475F2"/>
<path d="M6.033,14.15L4.863,13.884L4.863,13.885L6.033,14.15ZM33.967,14.167L32.796,14.432L32.796,14.432L33.967,14.167ZM26,34.233L25.169,33.368L25.167,33.37L26,34.233ZM13.983,34.233L13.151,35.097L13.152,35.099L13.983,34.233ZM7.203,14.416C8.698,7.846 14.292,4.529 20.005,4.533C25.719,4.537 31.309,7.862 32.796,14.432L35.137,13.902C33.357,6.038 26.623,2.138 20.007,2.133C13.391,2.129 6.652,6.021 4.863,13.884L7.203,14.416ZM32.796,14.432C34.564,22.242 29.725,28.993 25.169,33.368L26.831,35.099C31.509,30.607 37.202,23.025 35.137,13.902L32.796,14.432ZM25.167,33.37C22.283,36.153 17.718,36.156 14.815,33.368L13.152,35.099C16.982,38.777 23.017,38.78 26.833,35.097L25.167,33.37ZM14.816,33.369C10.276,28.994 5.435,22.226 7.204,14.415L4.863,13.885C2.798,23.007 8.49,30.606 13.151,35.097L14.816,33.369Z" fill="#4475F2"/>
</svg>
