<svg width="174" height="78" viewBox="0 0 174 78" fill="none" xmlns="http://www.w3.org/2000/svg" xmlns:xlink="http://www.w3.org/1999/xlink">
<path d="M25.296,0.001L33.108,0.001L33.108,77.129L23.808,77.129L7.812,17.361L7.812,77.129L0,77.129L0,0.001L9.92,0.001L25.296,57.661L25.296,0.001Z" fill="#FFFFFF"/>
<path d="M48.478,0.001L61.126,0.001C67.657,0.001 70.922,3.266 70.922,9.797L70.922,67.333C70.922,73.864 67.657,77.129 61.126,77.129L48.478,77.129C41.948,77.129 38.682,73.864 38.682,67.333L38.682,9.797C38.682,3.266 41.948,0.001 48.478,0.001ZM62.49,65.969L62.49,11.161C62.49,9.508 62.242,8.474 61.746,8.061C61.25,7.565 60.217,7.317 58.646,7.317L50.958,7.317C49.388,7.317 48.354,7.565 47.858,8.061C47.362,8.474 47.114,9.508 47.114,11.161L47.114,65.969C47.114,67.622 47.362,68.697 47.858,69.193C48.354,69.606 49.388,69.813 50.958,69.813L58.646,69.813C60.217,69.813 61.25,69.606 61.746,69.193C62.242,68.697 62.49,67.622 62.49,65.969Z" fill="#FFFFFF"/>
<path d="M84.978,44.889L84.978,77.129L76.546,77.129L76.546,0.001L98.99,0.001C105.52,0.001 108.786,3.266 108.786,9.797L108.786,35.093C108.786,40.962 106.223,44.186 101.098,44.765L112.754,77.129L103.578,77.129L92.294,44.889L84.978,44.889ZM84.978,7.317L84.978,37.573L96.51,37.573C98.163,37.573 99.196,37.366 99.61,36.953C100.106,36.457 100.354,35.382 100.354,33.729L100.354,11.161C100.354,9.508 100.106,8.474 99.61,8.061C99.196,7.565 98.163,7.317 96.51,7.317L84.978,7.317Z" fill="#FFFFFF"/>
<path d="M141.306,0.001L141.306,7.317L128.906,7.317L128.906,77.129L120.474,77.129L120.474,7.317L108.074,7.317L108.074,0.001L141.306,0.001Z" fill="#FFFFFF"/>
<path d="M150.521,0.001L163.169,0.001C169.7,0.001 172.965,3.266 172.965,9.797L172.965,67.333C172.965,73.864 169.7,77.129 163.169,77.129L150.521,77.129C143.991,77.129 140.725,73.864 140.725,67.333L140.725,9.797C140.725,3.266 143.991,0.001 150.521,0.001ZM164.533,65.969L164.533,11.161C164.533,9.508 164.285,8.474 163.789,8.061C163.293,7.565 162.26,7.317 160.689,7.317L153.001,7.317C151.431,7.317 150.397,7.565 149.901,8.061C149.405,8.474 149.157,9.508 149.157,11.161L149.157,65.969C149.157,67.622 149.405,68.697 149.901,69.193C150.397,69.606 151.431,69.813 153.001,69.813L160.689,69.813C162.26,69.813 163.293,69.606 163.789,69.193C164.285,68.697 164.533,67.622 164.533,65.969Z" fill="#FFFFFF"/>
</svg>
