<svg width="136" height="91" viewBox="0 0 136 91" fill="none" xmlns="http://www.w3.org/2000/svg">
<path d="M87.224 36.1086V23.4436H91.355C92.6923 23.4436 93.854 23.7156 94.84 24.2596C95.8373 24.7922 96.608 25.5346 97.152 26.4866C97.696 27.4272 97.968 28.5209 97.968 29.7676C97.968 31.0029 97.696 32.1022 97.152 33.0656C96.608 34.0176 95.8373 34.7656 94.84 35.3096C93.854 35.8422 92.6923 36.1086 91.355 36.1086H87.224ZM89.536 34.0686H91.406C92.2673 34.0686 93.0097 33.8929 93.633 33.5416C94.2677 33.1789 94.7607 32.6802 95.112 32.0456C95.4633 31.3996 95.639 30.6402 95.639 29.7676C95.639 28.8836 95.4633 28.1242 95.112 27.4896C94.7607 26.8549 94.2677 26.3619 93.633 26.0106C93.0097 25.6592 92.2673 25.4836 91.406 25.4836H89.536V34.0686ZM104.007 36.3126C103.055 36.3126 102.222 36.0972 101.508 35.6666C100.794 35.2359 100.239 34.6522 99.842 33.9156C99.4453 33.1789 99.247 32.3629 99.247 31.4676C99.247 30.5382 99.4453 29.7166 99.842 29.0026C100.25 28.2772 100.8 27.7049 101.491 27.2856C102.194 26.8662 102.976 26.6566 103.837 26.6566C104.562 26.6566 105.197 26.7756 105.741 27.0136C106.296 27.2516 106.767 27.5802 107.152 27.9996C107.537 28.4189 107.832 28.9006 108.036 29.4446C108.24 29.9772 108.342 30.5552 108.342 31.1786C108.342 31.3372 108.331 31.5016 108.308 31.6716C108.297 31.8416 108.268 31.9889 108.223 32.1136H101.083V30.4136H106.965L105.911 31.2126C106.013 30.6912 105.985 30.2266 105.826 29.8186C105.679 29.4106 105.429 29.0876 105.078 28.8496C104.738 28.6116 104.324 28.4926 103.837 28.4926C103.372 28.4926 102.959 28.6116 102.596 28.8496C102.233 29.0762 101.956 29.4162 101.763 29.8696C101.582 30.3116 101.514 30.8499 101.559 31.4846C101.514 32.0512 101.587 32.5556 101.78 32.9976C101.984 33.4282 102.279 33.7626 102.664 34.0006C103.061 34.2386 103.514 34.3576 104.024 34.3576C104.534 34.3576 104.965 34.2499 105.316 34.0346C105.679 33.8192 105.962 33.5302 106.166 33.1676L107.968 34.0516C107.787 34.4936 107.503 34.8846 107.118 35.2246C106.733 35.5646 106.274 35.8309 105.741 36.0236C105.22 36.2162 104.642 36.3126 104.007 36.3126ZM110.03 36.1086V26.8606H112.121V29.0026L111.883 28.6456C112.053 27.9769 112.393 27.4782 112.903 27.1496C113.413 26.8209 114.014 26.6566 114.705 26.6566C115.464 26.6566 116.133 26.8549 116.711 27.2516C117.289 27.6482 117.663 28.1696 117.833 28.8156L117.204 28.8666C117.487 28.1299 117.912 27.5802 118.479 27.2176C119.046 26.8436 119.697 26.6566 120.434 26.6566C121.091 26.6566 121.675 26.8039 122.185 27.0986C122.706 27.3932 123.114 27.8069 123.409 28.3396C123.704 28.8609 123.851 29.4672 123.851 30.1586V36.1086H121.624V30.6856C121.624 30.2776 121.55 29.9262 121.403 29.6316C121.256 29.3369 121.052 29.1102 120.791 28.9516C120.53 28.7816 120.213 28.6966 119.839 28.6966C119.488 28.6966 119.176 28.7816 118.904 28.9516C118.632 29.1102 118.422 29.3369 118.275 29.6316C118.128 29.9262 118.054 30.2776 118.054 30.6856V36.1086H115.827V30.6856C115.827 30.2776 115.753 29.9262 115.606 29.6316C115.459 29.3369 115.249 29.1102 114.977 28.9516C114.716 28.7816 114.405 28.6966 114.042 28.6966C113.691 28.6966 113.379 28.7816 113.107 28.9516C112.835 29.1102 112.625 29.3369 112.478 29.6316C112.331 29.9262 112.257 30.2776 112.257 30.6856V36.1086H110.03ZM130.257 36.3126C129.351 36.3126 128.523 36.1029 127.775 35.6836C127.039 35.2642 126.449 34.6919 126.007 33.9666C125.577 33.2412 125.361 32.4139 125.361 31.4846C125.361 30.5552 125.577 29.7279 126.007 29.0026C126.449 28.2772 127.039 27.7049 127.775 27.2856C128.512 26.8662 129.339 26.6566 130.257 26.6566C131.164 26.6566 131.986 26.8662 132.722 27.2856C133.459 27.7049 134.043 28.2772 134.473 29.0026C134.915 29.7166 135.136 30.5439 135.136 31.4846C135.136 32.4139 134.915 33.2412 134.473 33.9666C134.031 34.6919 133.442 35.2642 132.705 35.6836C131.969 36.1029 131.153 36.3126 130.257 36.3126ZM130.257 34.2726C130.756 34.2726 131.192 34.1536 131.566 33.9156C131.952 33.6776 132.252 33.3489 132.467 32.9296C132.694 32.4989 132.807 32.0172 132.807 31.4846C132.807 30.9406 132.694 30.4646 132.467 30.0566C132.252 29.6372 131.952 29.3086 131.566 29.0706C131.192 28.8212 130.756 28.6966 130.257 28.6966C129.747 28.6966 129.3 28.8212 128.914 29.0706C128.529 29.3086 128.223 29.6372 127.996 30.0566C127.781 30.4646 127.673 30.9406 127.673 31.4846C127.673 32.0172 127.781 32.4989 127.996 32.9296C128.223 33.3489 128.529 33.6776 128.914 33.9156C129.3 34.1536 129.747 34.2726 130.257 34.2726Z" fill="white"/>
<g filter="url(#filter0_d_146_882)">
<ellipse cx="45" cy="30.1714" rx="25" ry="25.1429" fill="white"/>
<path d="M69.5 30.1714C69.5 43.784 58.5283 54.8143 45 54.8143C31.4717 54.8143 20.5 43.784 20.5 30.1714C20.5 16.5589 31.4717 5.52856 45 5.52856C58.5283 5.52856 69.5 16.5589 69.5 30.1714Z" stroke="#4475F2"/>
</g>
<path d="M51.7308 31.622L40.9135 37.903L40.9135 25.3409L51.7308 31.622Z" fill="#4475F2"/>
<defs>
<filter id="filter0_d_146_882" x="0" y="0.0285645" width="90" height="90.2857" filterUnits="userSpaceOnUse" color-interpolation-filters="sRGB">
<feFlood flood-opacity="0" result="BackgroundImageFix"/>
<feColorMatrix in="SourceAlpha" type="matrix" values="0 0 0 0 0 0 0 0 0 0 0 0 0 0 0 0 0 0 127 0" result="hardAlpha"/>
<feOffset dy="15"/>
<feGaussianBlur stdDeviation="10"/>
<feColorMatrix type="matrix" values="0 0 0 0 0.266667 0 0 0 0 0.458824 0 0 0 0 0.94902 0 0 0 0.2 0"/>
<feBlend mode="normal" in2="BackgroundImageFix" result="effect1_dropShadow_146_882"/>
<feBlend mode="normal" in="SourceGraphic" in2="effect1_dropShadow_146_882" result="shape"/>
</filter>
</defs>
</svg>