<svg width="34" height="32" viewBox="0 0 34 32" fill="none" xmlns="http://www.w3.org/2000/svg" xmlns:xlink="http://www.w3.org/1999/xlink">
<path d="M27.454,15.333C27.454,21.777 22.231,27 15.787,27L15.787,29C23.335,29 29.454,22.881 29.454,15.333L27.454,15.333ZM15.787,27C9.344,27 4.121,21.777 4.121,15.333L2.121,15.333C2.121,22.881 8.24,29 15.787,29L15.787,27ZM4.121,15.333C4.121,8.89 9.344,3.667 15.787,3.667L15.787,1.667C8.24,1.667 2.121,7.785 2.121,15.333L4.121,15.333ZM15.787,3.667C22.231,3.667 27.454,8.89 27.454,15.333L29.454,15.333C29.454,7.785 23.335,1.667 15.787,1.667L15.787,3.667Z" fill="#9A9EA6"/>
<path d="M29.08,30.04C29.471,30.431 30.104,30.431 30.495,30.04C30.885,29.65 30.885,29.017 30.495,28.626L29.08,30.04ZM27.828,25.96C27.437,25.569 26.804,25.569 26.414,25.96C26.023,26.35 26.023,26.983 26.414,27.374L27.828,25.96ZM30.495,28.626L27.828,25.96L26.414,27.374L29.08,30.04L30.495,28.626Z" fill="#9A9EA6"/>
</svg>
