<svg width="104" height="104" viewBox="0 0 104 104" fill="none" xmlns="http://www.w3.org/2000/svg" xmlns:xlink="http://www.w3.org/1999/xlink">
<path d="M51.609,0L54.566,34.837L69.26,3.112L60.124,36.859L84.782,12.074L64.655,40.661L96.303,25.804L67.612,45.784L102.433,42.647L68.639,51.609L102.433,60.57L67.612,57.434L96.303,77.413L64.655,62.556L84.782,91.143L60.124,66.358L69.26,100.105L54.566,68.381L51.609,103.217L48.651,68.381L33.957,100.105L43.093,66.358L18.435,91.143L38.562,62.556L6.914,77.413L35.605,57.434L0.784,60.57L34.578,51.609L0.784,42.647L35.605,45.784L6.914,25.804L38.562,40.661L18.435,12.074L43.093,36.859L33.957,3.112L48.651,34.837L51.609,0Z" fill="#FFFFFF"/>
</svg>
