<svg width="86" height="44" viewBox="0 0 86 44" fill="none" xmlns="http://www.w3.org/2000/svg" xmlns:xlink="http://www.w3.org/1999/xlink">
<path d="M83.894,2.644C84.48,2.058 84.48,1.108 83.894,0.523C83.308,-0.063 82.359,-0.063 81.773,0.523L83.894,2.644ZM42,42.417L40.939,43.477C41.525,44.063 42.475,44.063 43.061,43.477L42,42.417ZM2.227,0.523C1.642,-0.063 0.692,-0.063 0.106,0.523C-0.48,1.108 -0.48,2.058 0.106,2.644L2.227,0.523ZM81.773,0.523L40.939,41.356L43.061,43.477L83.894,2.644L81.773,0.523ZM43.061,41.356L2.227,0.523L0.106,2.644L40.939,43.477L43.061,41.356Z" transform="rotate(-180 42 22)" fill="#FFFFFF"/>
</svg>
