<svg width="40" height="32" viewBox="0 0 40 32" fill="none" xmlns="http://www.w3.org/2000/svg" xmlns:xlink="http://www.w3.org/1999/xlink">
<path d="M39.152,3.725C37.714,4.35 36.192,4.761 34.635,4.947C36.272,3.989 37.502,2.468 38.096,0.668C36.549,1.572 34.859,2.207 33.099,2.544C32.358,1.768 31.467,1.15 30.479,0.729C29.492,0.308 28.429,0.092 27.356,0.094C23.009,0.094 19.491,3.558 19.491,7.828C19.488,8.422 19.556,9.014 19.694,9.592C16.577,9.446 13.525,8.651 10.733,7.259C7.941,5.867 5.471,3.907 3.48,1.506C2.782,2.683 2.412,4.026 2.411,5.394C2.411,8.075 3.811,10.446 5.925,11.835C4.672,11.805 3.445,11.474 2.348,10.869L2.348,10.965C2.348,14.716 5.064,17.837 8.658,18.547C7.982,18.727 7.286,18.818 6.586,18.818C6.09,18.819 5.595,18.771 5.108,18.675C6.107,21.748 9.015,23.983 12.46,24.046C9.661,26.202 6.224,27.367 2.69,27.359C2.063,27.358 1.436,27.32 0.813,27.247C4.408,29.541 8.587,30.755 12.853,30.743C27.339,30.743 35.253,18.954 35.253,8.73C35.253,8.395 35.244,8.059 35.228,7.732C36.764,6.64 38.093,5.283 39.152,3.725L39.152,3.725Z" fill="#FFFFFF"/>
</svg>
