<svg width="24" height="14" viewBox="0 0 24 14" fill="none" xmlns="http://www.w3.org/2000/svg" xmlns:xlink="http://www.w3.org/1999/xlink">
<path d="M23.225,2.681C23.637,2.313 23.674,1.681 23.307,1.269C22.94,0.856 22.308,0.819 21.895,1.187L23.225,2.681ZM12,11.334L11.335,12.081C11.714,12.418 12.286,12.418 12.665,12.081L12,11.334ZM2.105,1.187C1.692,0.819 1.06,0.856 0.693,1.269C0.326,1.681 0.363,2.313 0.775,2.681L2.105,1.187ZM21.895,1.187L11.335,10.587L12.665,12.081L23.225,2.681L21.895,1.187ZM12.665,10.587L2.105,1.187L0.775,2.681L11.335,12.081L12.665,10.587Z" fill="#9A9EA6"/>
</svg>
