<svg width="38" height="40" viewBox="0 0 38 40" fill="none" xmlns="http://www.w3.org/2000/svg" xmlns:xlink="http://www.w3.org/1999/xlink">
<path d="M34.882,0L2.47,0C0.699,0 -0.848,1.274 -0.848,3.025L-0.848,35.509C-0.848,37.269 0.699,38.837 2.47,38.837L34.873,38.837C36.654,38.837 37.989,37.258 37.989,35.509L37.989,3.025C37.999,1.274 36.654,0 34.882,0ZM11.19,32.372L5.627,32.372L5.627,15.074L11.19,15.074L11.19,32.372ZM8.601,12.443L8.561,12.443C6.78,12.443 5.628,11.118 5.628,9.459C5.628,7.769 6.811,6.475 8.631,6.475C10.452,6.475 11.566,7.76 11.606,9.459C11.605,11.118 10.452,12.443 8.601,12.443ZM31.524,32.372L25.96,32.372L25.96,22.914C25.96,20.648 25.151,19.099 23.138,19.099C21.6,19.099 20.69,20.14 20.285,21.153C20.133,21.517 20.092,22.013 20.092,22.519L20.092,32.372L14.529,32.372L14.529,15.074L20.092,15.074L20.092,17.481C20.902,16.328 22.167,14.669 25.11,14.669C28.762,14.669 31.525,17.076 31.525,22.266L31.524,32.372Z" fill="#FFFFFF"/>
</svg>
