<svg width="42" height="40" viewBox="0 0 42 40" fill="none" xmlns="http://www.w3.org/2000/svg" xmlns:xlink="http://www.w3.org/1999/xlink">
<path d="M40.813,19.534C40.813,8.912 31.618,0.3 20.279,0.3C8.939,0.3 -0.256,8.912 -0.256,19.534C-0.256,29.133 7.252,37.09 17.07,38.535L17.07,25.095L11.855,25.095L11.855,19.534L17.07,19.534L17.07,15.296C17.07,10.477 20.137,7.812 24.826,7.812C27.073,7.812 29.424,8.188 29.424,8.188L29.424,12.922L26.833,12.922C24.284,12.922 23.486,14.404 23.486,15.927L23.486,19.534L29.181,19.534L28.271,25.095L23.487,25.095L23.487,38.536C33.305,37.093 40.813,29.136 40.813,19.534L40.813,19.534Z" clip-rule="evenodd" fill-rule="evenodd" fill="#FFFFFF"/>
</svg>
