<svg width="38" height="36" viewBox="0 0 38 36" fill="none" xmlns="http://www.w3.org/2000/svg" xmlns:xlink="http://www.w3.org/1999/xlink">
<path d="M2.948,0.282L2.979,1.281L2.984,1.281L2.948,0.282ZM1.004,2.283L2.002,2.221L2.002,2.217L1.004,2.283ZM8.612,23.717L9.349,23.04L9.347,23.038L8.612,23.717ZM35.063,33.962L35.105,34.961L35.119,34.96L35.063,33.962ZM37,32.054L38,32.064L38,32.054L37,32.054ZM37,25.135L38,25.135L38,25.125L37,25.135ZM34.625,22.356L34.839,21.379L34.828,21.377L34.625,22.356ZM29.761,21.348L29.964,20.369L29.957,20.367L29.761,21.348ZM26.564,22.565L25.75,21.984L25.747,21.988L26.564,22.565ZM25.488,24.091L26.304,24.668L26.305,24.667L25.488,24.091ZM24.55,24.357L24.175,25.284L24.185,25.288L24.55,24.357ZM11.133,11.751L12.122,11.604L12.121,11.602L11.133,11.751ZM11.501,11.031L11.987,11.905L11.998,11.899L11.501,11.031ZM13.453,9.915L13.95,10.783L13.956,10.78L13.453,9.915ZM14.844,6.884L15.821,6.668L15.819,6.659L14.844,6.884ZM13.776,2.247L14.751,2.023L14.748,2.013L13.776,2.247ZM10.702,0.001L10.679,-0.999L10.666,-0.998L10.702,0.001ZM2.918,-0.718C2.524,-0.706 2.134,-0.62 1.773,-0.464L2.567,1.372C2.694,1.317 2.834,1.286 2.979,1.281L2.918,-0.718ZM1.773,-0.464C1.411,-0.307 1.082,-0.082 0.807,0.201L2.242,1.594C2.329,1.504 2.439,1.427 2.567,1.372L1.773,-0.464ZM0.807,0.201C0.532,0.484 0.317,0.819 0.178,1.189L2.05,1.892C2.09,1.786 2.154,1.684 2.242,1.594L0.807,0.201ZM0.178,1.189C0.039,1.559 -0.02,1.954 0.006,2.349L2.002,2.217C1.994,2.109 2.011,1.998 2.05,1.892L0.178,1.189ZM0.006,2.345C0.143,4.546 0.534,8.336 1.669,12.422C2.8,16.499 4.692,20.946 7.877,24.395L9.347,23.038C6.461,19.913 4.683,15.804 3.596,11.887C2.511,7.98 2.134,4.34 2.002,2.221L0.006,2.345ZM7.875,24.393C15.388,32.577 25.169,35.373 35.105,34.961L35.022,32.962C25.53,33.356 16.375,30.695 9.349,23.04L7.875,24.393ZM35.119,34.96C35.874,34.918 36.596,34.609 37.135,34.078L35.731,32.653C35.551,32.83 35.294,32.947 35.007,32.963L35.119,34.96ZM37.135,34.078C37.676,33.545 37.992,32.826 38,32.064L36,32.044C35.998,32.259 35.909,32.477 35.731,32.653L37.135,34.078ZM38,32.054L38,25.135L36,25.135L36,32.054L38,32.054ZM38,25.125C37.992,24.238 37.665,23.388 37.086,22.711L35.566,24.01C35.848,24.341 35.996,24.74 36,25.144L38,25.125ZM37.086,22.711C36.509,22.035 35.715,21.571 34.839,21.379L34.412,23.333C34.878,23.435 35.282,23.678 35.566,24.01L37.086,22.711ZM34.828,21.377L29.964,20.369L29.558,22.327L34.422,23.335L34.828,21.377ZM29.957,20.367C29.172,20.21 28.354,20.277 27.607,20.562L28.319,22.431C28.712,22.281 29.147,22.245 29.565,22.328L29.957,20.367ZM27.607,20.562C26.86,20.846 26.21,21.338 25.75,21.984L27.378,23.145C27.601,22.833 27.926,22.58 28.319,22.431L27.607,20.562ZM25.747,21.988L24.671,23.515L26.305,24.667L27.381,23.141L25.747,21.988ZM24.672,23.513C24.71,23.459 24.758,23.431 24.797,23.42L25.344,25.344C25.725,25.236 26.068,25.002 26.304,24.668L24.672,23.513ZM24.797,23.42C24.836,23.409 24.876,23.411 24.916,23.426L24.185,25.288C24.555,25.433 24.963,25.452 25.344,25.344L24.797,23.42ZM24.925,23.43C23.716,22.941 20.72,21.647 17.908,19.602C15.066,17.536 12.603,14.842 12.122,11.604L10.143,11.898C10.745,15.945 13.754,19.054 16.732,21.22C19.739,23.406 22.91,24.773 24.176,25.284L24.925,23.43ZM12.121,11.602C12.132,11.67 12.119,11.738 12.091,11.794L10.311,10.882C10.151,11.195 10.091,11.549 10.144,11.9L12.121,11.602ZM12.091,11.794C12.062,11.849 12.023,11.885 11.987,11.905L11.016,10.157C10.719,10.322 10.47,10.571 10.311,10.882L12.091,11.794ZM11.998,11.899L13.95,10.783L12.957,9.047L11.005,10.163L11.998,11.899ZM13.956,10.78C14.662,10.369 15.229,9.759 15.567,9.021L13.749,8.187C13.59,8.534 13.315,8.839 12.951,9.05L13.956,10.78ZM15.567,9.021C15.906,8.283 15.996,7.461 15.821,6.668L13.868,7.099C13.948,7.463 13.908,7.841 13.749,8.187L15.567,9.021ZM15.819,6.659L14.751,2.023L12.802,2.472L13.87,7.108L15.819,6.659ZM14.748,2.013C14.535,1.124 14.002,0.345 13.258,-0.198L12.078,1.416C12.455,1.692 12.705,2.071 12.804,2.481L14.748,2.013ZM13.258,-0.198C12.515,-0.741 11.604,-1.02 10.679,-0.999L10.725,1.001C11.221,0.989 11.7,1.14 12.078,1.416L13.258,-0.198ZM10.666,-0.998L2.912,-0.718L2.984,1.281L10.738,1L10.666,-0.998Z" fill="#F6B426"/>
</svg>
